<svg class="plot-d6a7b5" fill="currentColor" font-family="system-ui, sans-serif" font-size="10" text-anchor="middle" width="640" height="400" viewBox="0 0 640 400" xmlns="http://www.w3.org/2000/svg" xmlns:xlink="http://www.w3.org/1999/xlink"><style>:where(.plot-d6a7b5) {
  --plot-background: white;
  display: block;
  height: auto;
  height: intrinsic;
  max-width: 100%;
}
:where(.plot-d6a7b5 text),
:where(.plot-d6a7b5 tspan) {
  white-space: pre;
}</style><g aria-label="x-axis tick" aria-hidden="true" fill="none" stroke="currentColor"><path transform="translate(140.8695652173913,370)" d="M0,0L0,6"/><path transform="translate(245.17786561264822,370)" d="M0,0L0,6"/><path transform="translate(350.6324110671937,370)" d="M0,0L0,6"/><path transform="translate(456.08695652173907,370)" d="M0,0L0,6"/><path transform="translate(560.395256916996,370)" d="M0,0L0,6"/></g><g aria-label="x-axis tick label" font-variant="tabular-nums" transform="translate(0,9)"><text transform="translate(140.8695652173913,370)"><tspan x="0" y="0.71em">Apr</tspan><tspan x="0" dy="1em">2023</tspan></text><text y="0.71em" transform="translate(245.17786561264822,370)">Jul</text><text y="0.71em" transform="translate(350.6324110671937,370)">Oct</text><text transform="translate(456.08695652173907,370)"><tspan x="0" y="0.71em">Jan</tspan><tspan x="0" dy="1em">2024</tspan></text><text y="0.71em" transform="translate(560.395256916996,370)">Apr</text></g><g aria-label="rule" stroke="currentColor"><line x1="40" x2="620" y1="370" y2="370"/></g><g aria-label="line" fill="none" stroke="currentColor" stroke-width="1.5" stroke-linejoin="round" stroke-linecap="round"><path d="M40,61.947L41.146,50.857L42.292,50.949L43.439,44.044L46.877,50.002L48.024,46.152L49.17,45.236L50.316,46.611L51.462,42.394L56.047,43.861L57.194,49.207L58.34,51.468L59.486,49.085L62.925,45.511L64.071,44.197L65.217,43.158L66.364,37.72L67.51,36.926L70.949,38.82L72.095,36.559L73.241,33.962L74.387,36.528L75.534,51.346L78.972,49.146L80.119,43.616L81.265,45.236L82.411,45.999L83.557,42.822L86.996,38.453L88.142,40.103L89.289,36.987L90.435,41.447L91.581,42.792L96.166,49.88L97.312,49.91L98.458,53.76L99.605,59.595L103.043,57.029L104.19,58.098L105.336,60.114L106.482,55.287L107.628,50.582L111.067,49.238L112.213,54.279L113.36,56.845L114.506,63.567L115.652,66.377L119.091,67.294L120.237,66.133L121.383,66.5L122.53,63.17L123.676,68.455L127.115,64.942L128.261,62.833L129.407,67.172L130.553,69.31L131.7,69.555L135.138,68.577L136.285,68.394L137.431,62.589L138.577,60.45L139.723,51.865L143.162,49.666L144.308,52.263L145.455,49.513L146.601,50.185L151.186,50.002L152.332,46.947L153.478,47.374L154.625,43.128L155.771,41.661L159.209,39.095L160.356,40.317L161.502,42.608L162.648,42.944L163.794,39.461L167.233,36.101L168.379,35.948L169.526,29.44L170.672,25.53L171.818,20.825L175.257,20L176.403,20.306L177.549,52.385L178.696,50.063L179.842,42.455L183.281,42.578L184.427,43.983L185.573,43.189L186.719,47.283L187.866,45.786L191.304,44.197L192.451,48.352L193.597,47.099L194.743,42.822L195.889,47.649L199.328,55.623L200.474,63.444L201.621,65.675L202.767,69.249L203.913,68.974L208.498,71.357L209.644,71.693L210.791,72.06L211.937,66.011L215.375,64.697L216.522,69.921L217.668,70.838L218.814,67.08L219.96,70.716L223.399,69.188L224.545,66.744L225.692,62.467L226.838,60.267L227.984,58.77L232.569,60.603L233.715,58.77L234.862,61.886L236.008,69.555L239.447,69.891L240.593,68.394L241.739,68.73L242.885,68.516L244.032,67.355L247.47,67.08L249.763,69.188L250.909,76.093L252.055,76.551L255.494,67.141L256.64,64.208L257.787,61L258.933,59.595L260.079,59.564L263.518,61.642L264.664,62.161L265.81,58.892L266.957,61.795L268.103,55.868L271.542,55.99L272.688,55.562L273.834,59.198L274.98,62.1L276.126,60.664L279.565,59.687L280.711,60.634L281.858,57.976L283.004,57.365L284.15,62.406L287.589,59.167L288.735,62.345L289.881,64.728L291.028,59.412L292.174,61.459L295.613,61.398L296.759,64.361L297.905,67.599L299.051,74.962L300.198,72.946L303.636,75.299L304.783,76.49L305.929,79.209L307.075,80.278L308.221,78.293L311.66,73.527L312.806,67.08L313.953,66.805L315.099,72.304L316.245,70.594L320.83,74.138L321.976,76.857L323.123,79.454L324.269,78.904L327.708,77.712L328.854,75.971L330,73.863L331.146,73.16L332.292,76.001L335.731,74.382L336.877,78.873L338.024,79.27L339.17,85.564L340.316,83.792L343.755,86.664L344.901,88.925L346.047,91.46L347.194,91.735L348.34,91.155L351.779,91.583L352.925,96.624L354.071,91.521L355.217,87.794L356.364,86.328L359.802,86.847L360.949,85.319L362.095,89.077L363.241,90.697L364.387,90.513L367.826,83.884L368.972,82.264L370.119,83.578L371.265,81.531L372.411,82.234L375.85,82.203L376.996,80.92L378.142,82.814L379.289,86.878L380.435,88.863L383.874,85.411L385.02,88.191L386.166,90.91L387.312,64.453L388.458,56.387L391.897,52.171L393.043,53.24L394.19,51.346L395.336,57.67L396.482,51.254L399.921,53.76L401.067,47.374L402.213,46.061L403.36,42.455L404.506,47.466L407.945,51.346L409.091,53.21L410.237,53.973L412.53,55.99L415.968,57.273L417.115,60.878L418.261,64.942L419.407,66.622L420.553,66.927L423.992,71.816L425.138,78.109L426.285,73.588L427.431,75.36L428.577,74.84L432.016,70.227L433.162,70.135L434.308,70.257L435.455,71.082L436.601,74.413L440.04,74.993L441.186,71.449L442.332,80.645L443.478,78.751L444.625,78.904L449.209,77.712L450.356,78.873L451.502,76.918L452.648,76.673L457.233,83.822L458.379,85.167L459.526,84.189L460.672,85.9L464.111,82.234L465.257,85.594L466.403,84.342L467.549,86.053L468.696,88.986L473.281,86.786L474.427,89.627L475.573,84.831L476.719,83.242L480.158,85.656L481.304,89.016L482.451,88.802L483.597,87.061L484.743,86.48L488.182,83.425L489.328,82.57L490.474,85.778L491.621,84.739L492.767,85.9L496.206,87.366L497.352,77.712L498.498,78.812L499.644,74.901L500.791,72.732L504.229,78.323L505.375,83.211L506.522,82.6L507.668,85.197L508.814,85.197L513.399,84.464L514.545,79.698L515.692,77.376L516.838,77.865L520.277,81.959L521.423,82.417L522.569,85.869L523.715,80.065L524.862,85.381L528.3,87.519L529.447,91.308L530.593,89.994L531.739,92.133L532.885,91.796L536.324,88.711L537.47,87.703L538.617,90.116L539.763,89.963L540.909,94.668L544.348,91.949L545.494,90.177L546.64,87.091L547.787,89.963L548.933,92.866L552.372,92.988L553.518,93.935L554.664,90.452L555.81,90.788L560.395,90.361L561.542,97.174L562.688,99.007L563.834,102.306L564.98,104.659L568.419,103.62L569.565,103.803L570.711,107.408L571.858,107.561L573.004,110.555L576.443,109.791L577.589,109.028L578.735,106.614L579.881,103.742L581.028,102.337L584.466,100.595L585.613,101.542L586.759,98.854L587.905,101.634L589.051,100.381L592.49,100.137L593.636,99.648L594.783,142.573L595.929,141.076L597.075,146.637L600.514,147.278L601.66,148.5L602.806,145.445L603.953,138.785L605.099,137.471L608.538,137.257L609.684,138.938L610.83,138.724L611.976,140.007L613.123,132.155L616.561,133.102L617.708,132.552L618.854,123.387L620,127.847"/></g><g aria-label="y-axis tick" aria-hidden="true" fill="none" stroke="currentColor"><path transform="translate(40,370)" d="M0,0L-6,0"/><path transform="translate(40,339.44832348897216)" d="M0,0L-6,0"/><path transform="translate(40,308.8966469779442)" d="M0,0L-6,0"/><path transform="translate(40,278.3449704669164)" d="M0,0L-6,0"/><path transform="translate(40,247.79329395588846)" d="M0,0L-6,0"/><path transform="translate(40,217.24161744486062)" d="M0,0L-6,0"/><path transform="translate(40,186.68994093383276)" d="M0,0L-6,0"/><path transform="translate(40,156.13826442280487)" d="M0,0L-6,0"/><path transform="translate(40,125.58658791177699)" d="M0,0L-6,0"/><path transform="translate(40,95.03491140074915)" d="M0,0L-6,0"/><path transform="translate(40,64.48323488972127)" d="M0,0L-6,0"/><path transform="translate(40,33.93155837869339)" d="M0,0L-6,0"/></g><g aria-label="y-axis tick label" text-anchor="end" font-variant="tabular-nums" transform="translate(-9,0)"><text y="0.32em" transform="translate(40,370)">0</text><text y="0.32em" transform="translate(40,339.44832348897216)">10</text><text y="0.32em" transform="translate(40,308.8966469779442)">20</text><text y="0.32em" transform="translate(40,278.3449704669164)">30</text><text y="0.32em" transform="translate(40,247.79329395588846)">40</text><text y="0.32em" transform="translate(40,217.24161744486062)">50</text><text y="0.32em" transform="translate(40,186.68994093383276)">60</text><text y="0.32em" transform="translate(40,156.13826442280487)">70</text><text y="0.32em" transform="translate(40,125.58658791177699)">80</text><text y="0.32em" transform="translate(40,95.03491140074915)">90</text><text y="0.32em" transform="translate(40,64.48323488972127)">100</text><text y="0.32em" transform="translate(40,33.93155837869339)">110</text></g><g aria-label="y-axis label" text-anchor="start" transform="translate(-37,-17)"><text y="0.71em" transform="translate(40,20)">Stock price</text></g></svg>