<svg class="plot-d6a7b5" fill="currentColor" font-family="system-ui, sans-serif" font-size="10" text-anchor="middle" width="640" height="400" viewBox="0 0 640 400" xmlns="http://www.w3.org/2000/svg" xmlns:xlink="http://www.w3.org/1999/xlink"><style>:where(.plot-d6a7b5) {
  --plot-background: white;
  display: block;
  height: auto;
  height: intrinsic;
  max-width: 100%;
}
:where(.plot-d6a7b5 text),
:where(.plot-d6a7b5 tspan) {
  white-space: pre;
}</style><g aria-label="x-axis tick" aria-hidden="true" fill="none" stroke="currentColor"><path transform="translate(149.1304347826087,370)" d="M0,0L0,6"/><path transform="translate(251.6403162055336,370)" d="M0,0L0,6"/><path transform="translate(355.27667984189725,370)" d="M0,0L0,6"/><path transform="translate(458.9130434782608,370)" d="M0,0L0,6"/><path transform="translate(561.4229249011858,370)" d="M0,0L0,6"/></g><g aria-label="x-axis tick label" font-variant="tabular-nums" transform="translate(0,9)"><text transform="translate(149.1304347826087,370)"><tspan x="0" y="0.71em">Apr</tspan><tspan x="0" dy="1em">2023</tspan></text><text y="0.71em" transform="translate(251.6403162055336,370)">Jul</text><text y="0.71em" transform="translate(355.27667984189725,370)">Oct</text><text transform="translate(458.9130434782608,370)"><tspan x="0" y="0.71em">Jan</tspan><tspan x="0" dy="1em">2024</tspan></text><text y="0.71em" transform="translate(561.4229249011858,370)">Apr</text></g><g aria-label="rule" stroke="currentColor"><line x1="50" x2="620" y1="370" y2="370"/></g><g aria-label="line" fill="none" stroke="currentColor" stroke-width="1.5" stroke-linejoin="round" stroke-linecap="round"><path d="M50,368.965L51.126,367.892L52.253,366.82L53.379,365.725L56.759,364.65L57.885,363.561L59.012,362.47L60.138,361.383L61.265,360.282L65.771,359.186L66.897,358.108L68.024,357.038L69.15,355.96L72.53,354.869L73.656,353.774L74.783,352.676L75.909,351.559L77.036,350.44L80.415,349.327L81.542,348.207L82.668,347.077L83.794,345.957L84.921,344.886L88.3,343.808L89.427,342.711L90.553,341.62L91.68,340.531L92.806,339.431L96.186,338.317L97.312,337.209L98.439,336.09L99.565,334.986L100.692,333.886L105.198,332.81L106.324,331.735L107.451,330.672L108.577,329.629L111.957,328.577L113.083,327.529L114.209,326.488L115.336,325.43L116.462,324.357L119.842,323.279L120.968,322.218L122.095,321.165L123.221,320.136L124.348,319.115L127.727,318.098L128.854,317.077L129.98,316.057L131.107,315.026L132.233,314.013L135.613,312.988L136.739,311.955L137.866,310.938L138.992,309.927L140.119,308.918L143.498,307.905L144.625,306.891L145.751,305.858L146.877,304.818L148.004,303.749L151.383,302.673L152.51,301.605L153.636,300.528L154.763,299.453L159.269,298.378L160.395,297.292L161.522,296.208L162.648,295.11L163.775,294.006L167.154,292.894L168.281,291.786L169.407,290.686L170.534,289.587L171.66,288.476L175.04,287.354L176.166,286.232L177.292,285.087L178.419,283.93L179.545,282.756L182.925,281.58L184.051,280.405L185.178,279.338L186.304,278.263L187.431,277.162L190.81,276.062L191.937,274.966L193.063,273.868L194.19,272.783L195.316,271.694L198.696,270.599L199.822,269.518L200.949,268.433L202.075,267.334L203.202,266.251L206.581,265.194L207.708,264.164L208.834,263.141L209.96,262.131L211.087,261.119L215.593,260.115L216.719,259.113L217.846,258.112L218.972,257.09L222.352,256.064L223.478,255.056L224.605,254.051L225.731,253.033L226.858,252.027L230.237,251.016L231.364,249.997L232.49,248.964L233.617,247.923L234.743,246.877L239.249,245.837L240.375,244.791L241.502,243.756L242.628,242.746L246.008,241.738L247.134,240.724L248.261,239.712L249.387,238.699L250.514,237.682L253.893,236.664L256.146,235.653L257.273,234.665L258.399,233.679L261.779,232.661L262.905,231.634L264.032,230.596L265.158,229.552L266.285,228.509L269.664,227.473L270.791,226.439L271.917,225.393L273.043,224.357L274.17,223.302L277.549,222.247L278.676,221.19L279.802,220.145L280.929,219.111L282.055,218.071L285.435,217.029L286.561,215.989L287.688,214.94L288.814,213.89L289.941,212.856L293.32,211.812L294.447,210.778L295.573,209.752L296.7,208.708L297.826,207.671L301.206,206.634L302.332,205.607L303.458,204.591L304.585,203.6L305.711,202.601L309.091,201.611L310.217,200.625L311.344,199.648L312.47,198.674L313.597,197.694L316.976,196.697L318.103,195.679L319.229,194.661L320.356,193.66L321.482,192.654L325.988,191.66L327.115,190.675L328.241,189.698L329.368,188.72L332.747,187.738L333.874,186.75L335,185.755L336.126,184.757L337.253,183.769L340.632,182.776L341.759,181.798L342.885,180.821L344.012,179.865L345.138,178.903L348.518,177.951L349.644,177.006L350.771,176.07L351.897,175.135L353.024,174.198L356.403,173.263L357.53,172.344L358.656,171.408L359.783,170.46L360.909,169.507L364.289,168.555L365.415,167.598L366.542,166.654L367.668,165.716L368.794,164.777L372.174,163.815L373.3,162.848L374.427,161.886L375.553,160.916L376.68,159.949L380.059,158.982L381.186,158.011L382.312,157.046L383.439,156.094L384.565,155.15L387.945,154.193L389.071,153.246L390.198,152.308L391.324,151.282L392.451,150.228L395.83,149.16L396.957,148.095L398.083,147.024L399.209,145.975L400.336,144.904L403.715,143.841L404.842,142.757L405.968,141.668L407.095,140.568L408.221,139.484L411.601,138.413L412.727,137.348L413.854,136.286L416.107,135.231L419.486,134.18L420.613,133.142L421.739,132.116L422.866,131.097L423.992,130.078L427.372,129.076L428.498,128.096L429.625,127.1L430.751,126.109L431.877,125.118L435.257,124.11L436.383,123.102L437.51,122.095L438.636,121.091L439.763,120.097L443.142,119.106L444.269,118.103L445.395,117.13L446.522,116.152L447.648,115.174L452.154,114.191L453.281,113.213L454.407,112.228L455.534,111.242L460.04,110.281L461.166,109.324L462.292,108.363L463.419,107.408L466.798,106.441L467.925,105.486L469.051,104.526L470.178,103.572L471.304,102.627L475.81,101.676L476.937,100.733L478.063,99.775L479.19,98.811L482.569,97.856L483.696,96.912L484.822,95.967L485.949,95.016L487.075,94.063L490.455,93.1L491.581,92.134L492.708,91.179L493.834,90.221L494.96,89.266L498.34,88.316L499.466,87.334L500.593,86.355L501.719,85.364L502.846,84.365L506.225,83.385L507.352,82.421L508.478,81.455L509.605,80.498L510.731,79.541L515.237,78.581L516.364,77.606L517.49,76.623L518.617,75.641L521.996,74.673L523.123,73.707L524.249,72.752L525.375,71.777L526.502,70.821L529.881,69.872L531.008,68.935L532.134,67.994L533.261,67.061L534.387,66.126L537.767,65.18L538.893,64.232L540.02,63.291L541.146,62.35L542.273,61.425L545.652,60.491L546.779,59.55L547.905,58.6L549.032,57.659L550.158,56.727L553.538,55.796L554.664,54.869L555.791,53.929L556.917,52.991L561.423,52.051L562.549,51.134L563.676,50.224L564.802,49.324L565.929,48.433L569.308,47.537L570.435,46.643L571.561,45.761L572.688,44.879L573.814,44.007L577.194,43.132L578.32,42.255L579.447,41.37L580.573,40.476L581.7,39.576L585.079,38.671L586.206,37.769L587.332,36.857L588.458,35.956L589.585,35.05L592.964,34.143L594.091,33.234L595.217,32.47L596.344,31.701L597.47,30.95L600.85,30.202L601.976,29.457L603.103,28.703L604.229,27.926L605.356,27.144L608.735,26.362L609.862,25.586L610.988,24.809L612.115,24.036L613.241,23.236L616.621,22.44L617.747,21.642L618.874,20.814L620,20"/></g><g aria-label="y-axis tick" aria-hidden="true" fill="none" stroke="currentColor"><path transform="translate(50,370)" d="M0,0L-6,0"/><path transform="translate(50,318.66666805061334)" d="M0,0L-6,0"/><path transform="translate(50,267.3333361012267)" d="M0,0L-6,0"/><path transform="translate(50,216.00000415184002)" d="M0,0L-6,0"/><path transform="translate(50,164.66667220245336)" d="M0,0L-6,0"/><path transform="translate(50,113.33334025306668)" d="M0,0L-6,0"/><path transform="translate(50,62.00000830368004)" d="M0,0L-6,0"/></g><g aria-label="y-axis tick label" text-anchor="end" font-variant="tabular-nums" transform="translate(-9,0)"><text y="0.32em" transform="translate(50,370)">0</text><text y="0.32em" transform="translate(50,318.66666805061334)">5,000</text><text y="0.32em" transform="translate(50,267.3333361012267)">10,000</text><text y="0.32em" transform="translate(50,216.00000415184002)">15,000</text><text y="0.32em" transform="translate(50,164.66667220245336)">20,000</text><text y="0.32em" transform="translate(50,113.33334025306668)">25,000</text><text y="0.32em" transform="translate(50,62.00000830368004)">30,000</text></g><g aria-label="y-axis label" text-anchor="start" transform="translate(-47,-17)"><text y="0.71em" transform="translate(50,20)">Cumulative sum of stock price</text></g></svg>